<svg width="56" height="60" viewBox="0 0 56 60" fill="none" xmlns="http://www.w3.org/2000/svg">
<path fill-rule="evenodd" clip-rule="evenodd" d="M22.2256 3.75269C22.2256 3.75269 22.2756 3.70269 22.2256 3.75269V3.75269Z" fill="#1F2147"/>
<path fill-rule="evenodd" clip-rule="evenodd" d="M11.375 27.1274C14.9513 28.2558 18.3264 29.9434 21.375 32.1274C19.85 34.8024 17.45 41.2774 17.125 42.1274C16.8 42.9774 16.475 43.3024 15.925 44.5024C15.775 45.3524 17.375 45.8524 17.6 45.2524C21.15 39.1524 21.55 38.1024 23.95 33.6024C26.275 34.9274 26.45 35.5274 38.6249 39.3524C39.4999 39.5024 39.9999 38.9024 38.6249 37.5774C37.5749 37.1524 31.7999 34.3524 25.325 31.0274C28.025 24.8524 29.25 23.5274 29.7 22.0024C30.5 21.1524 29.3499 19.5024 27.3499 22.4024C26.775 23.0024 25.5 25.0274 25.5 25.0274C24.4544 26.4371 23.5183 27.9248 22.7 29.4774C20.4647 28.1541 18.103 27.057 15.65 26.2024C13.8271 25.4722 11.8881 25.0742 9.92495 25.0274C8.94995 25.3024 8.34995 25.8774 9.77495 26.7274L11.375 27.1274Z" fill="#0077E7"/>
<path fill-rule="evenodd" clip-rule="evenodd" d="M54.8256 19.1276C54.1756 18.3526 53.5006 20.5026 53.8256 21.6276C54.1506 23.0526 53.8256 23.2276 53.1756 24.6526C52.0417 27.8298 50.6452 30.9071 49.0006 33.8526C45.0756 39.8776 42.9756 44.6526 39.5506 50.7526C37.9608 53.7664 35.2769 56.0567 32.0506 57.1526C29.48 57.3817 26.8941 56.9335 24.5506 55.8526C22.0506 54.8776 19.1256 54.3026 17.0506 53.3526C14.8381 52.1942 12.5591 51.1674 10.2256 50.2776C7.92559 49.5026 4.02559 47.7776 3.50059 45.2776C3.37559 44.7776 1.85059 43.8276 1.85059 45.6026C1.85059 49.9776 9.77559 52.1526 12.0506 53.1026C14.0333 54.2113 16.0784 55.2046 18.1756 56.0776C19.9006 56.7276 21.7256 57.2026 23.4256 57.9526C30.1756 60.9526 33.9506 59.9026 37.2506 57.3526C41.9506 53.7776 42.7256 50.0776 48.1756 39.7026C49.8961 36.8368 51.4487 33.8734 52.8256 30.8276C54.9756 25.9776 57.0506 21.9526 54.8256 19.1276Z" fill="#0077E7"/>
<path fill-rule="evenodd" clip-rule="evenodd" d="M8.25036 45.8773C10.4007 46.74 12.5037 47.7164 14.5504 48.8023C17.0504 50.1273 19.7504 50.5523 22.2254 51.6273C38.9254 58.7773 39.8754 42.7023 49.5004 27.0273C51.6519 23.681 53.1217 19.9429 53.8254 16.0273C53.6504 12.3273 50.7254 10.5273 47.6504 8.52734C43.2126 5.68533 38.4107 3.45678 33.3754 1.90234C30.2084 1.08112 26.994 0.454941 23.7504 0.0273438C23.5504 0.0273438 23.1754 1.05234 24.3504 1.52734C27.5254 2.77734 27.9004 2.00234 32.7754 3.67734C38.9224 5.67664 44.6626 8.75842 49.7254 12.7773C50.6104 13.5071 51.2177 14.5189 51.4453 15.6432C51.6729 16.7675 51.507 17.9359 50.9754 18.9523C50.0372 21.2266 48.8642 23.3967 47.4754 25.4273L42.6754 23.2773C41.3504 22.6273 38.6754 20.5523 34.0504 18.1273C22.0504 11.7773 19.3004 12.2523 17.3754 11.5773C20.3254 7.52734 21.5754 4.45234 22.2254 3.75234C22.2496 3.56492 22.2046 3.37508 22.0987 3.21854C21.9928 3.062 21.8334 2.94955 21.6504 2.90234C20.2254 2.52734 19.0504 6.00234 18.5004 6.92734C16.1754 10.9023 12.6004 14.4273 10.0254 18.3273C2.67536 29.5273 -1.99964 36.8023 1.27536 41.2773C3.13116 43.4251 5.54531 45.0173 8.25036 45.8773ZM7.02536 27.0773C7.57536 26.0773 12.6004 17.8273 16.4004 12.8523C20.1545 14.1437 23.7654 15.8193 27.1754 17.8523C27.8754 18.2023 38.3004 23.4273 40.0754 24.4523C41.8655 25.275 43.7019 25.9929 45.5754 26.6023C45.8553 26.7742 46.1478 26.9246 46.4504 27.0523C45.6504 28.3773 44.8754 29.7273 44.1504 31.1023C41.5254 36.1023 38.3004 45.5523 32.8504 49.2523C31.3232 50.0236 29.6362 50.4254 27.9254 50.4254C26.2145 50.4254 24.5275 50.0236 23.0004 49.2523C20.5004 48.1773 11.3504 44.0773 9.17536 43.3273C7.00036 42.5773 3.20036 40.8273 2.75036 38.6523C2.10036 35.6023 5.50036 29.8273 7.02536 27.0773Z" fill="#1F2147"/>
<path fill-rule="evenodd" clip-rule="evenodd" d="M42.075 19.2764C42.325 19.5014 42.7 19.4514 43.225 19.0514C44.7281 17.9557 45.7916 16.3603 46.225 14.5514C46.2907 14.4776 46.3411 14.3915 46.3735 14.2981C46.4059 14.2047 46.4196 14.1059 46.4138 14.0072C46.408 13.9086 46.3828 13.812 46.3397 13.7231C46.2966 13.6342 46.2364 13.5546 46.1625 13.4889C46.0886 13.4233 46.0026 13.3728 45.9092 13.3404C45.8158 13.308 45.717 13.2943 45.6183 13.3001C45.5196 13.3059 45.4231 13.3311 45.3342 13.3742C45.2452 13.4173 45.1657 13.4776 45.1 13.5514C41.525 15.7264 41.15 18.4514 42.075 19.2764Z" fill="#1F2147"/>
<path fill-rule="evenodd" clip-rule="evenodd" d="M18.0004 21.2025C19.0675 21.6657 20.1826 22.0094 21.3254 22.2275C21.4845 22.3899 21.7017 22.4825 21.929 22.4848C22.1564 22.4872 22.3754 22.3991 22.5379 22.24C22.7003 22.0808 22.7929 21.8637 22.7952 21.6363C22.7976 21.4089 22.7095 21.1899 22.5504 21.0275C20.9504 18.5275 16.3754 17.7775 15.7004 18.5275C15.6137 18.5787 15.5382 18.6469 15.4784 18.728C15.4186 18.8091 15.3758 18.9014 15.3524 18.9994C15.3291 19.0974 15.3257 19.1991 15.3426 19.2984C15.3594 19.3977 15.3961 19.4926 15.4504 19.5775C16.2595 20.1807 17.1118 20.7238 18.0004 21.2025Z" fill="#1F2147"/>
<path fill-rule="evenodd" clip-rule="evenodd" d="M30.5006 26.4264C30.5006 27.1764 30.2756 26.7014 33.0006 28.6764C32.7851 29.3381 32.5176 29.9818 32.2006 30.6014C32.0415 30.7638 31.9534 30.9828 31.9557 31.2102C31.9581 31.4376 32.0507 31.6548 32.2131 31.8139C32.3756 31.973 32.5946 32.0611 32.822 32.0587C33.0493 32.0564 33.2665 31.9638 33.4256 31.8014C34.1724 31.2855 34.8309 30.6523 35.3756 29.9264C35.5256 29.7764 35.3756 29.7514 35.7256 29.9264C36.365 30.2102 37.0253 30.4442 37.7006 30.6264C38.2506 30.6264 38.4256 30.3014 38.5506 30.1014C39.0256 29.3514 37.2756 28.0514 36.5506 27.6014C36.7006 26.9264 36.8006 26.2764 36.9006 25.7264C36.9934 25.5407 37.0087 25.3258 36.9431 25.1289C36.8774 24.932 36.7363 24.7692 36.5506 24.6764C36.365 24.5835 36.15 24.5683 35.9531 24.6339C35.7562 24.6996 35.5934 24.8407 35.5006 25.0264C35.1756 25.4264 34.7256 25.8764 34.3006 26.4014C33.381 26.114 32.4344 25.9214 31.4756 25.8264C30.7756 25.8264 30.5006 26.1014 30.5006 26.4264Z" fill="#1F2147"/>
<path fill-rule="evenodd" clip-rule="evenodd" d="M8.45017 36.8277C8.9473 36.5365 9.48727 36.3256 10.0502 36.2027C12.8752 39.3277 12.2752 39.1527 12.8502 39.1527C13.0822 39.1527 13.3048 39.0605 13.4689 38.8964C13.633 38.7324 13.7252 38.5098 13.7252 38.2777C13.6389 37.1731 13.278 36.1075 12.6752 35.1777C14.2252 34.2527 14.7752 34.5527 15.4252 33.9527C15.5626 33.8125 15.6396 33.624 15.6396 33.4277C15.6396 33.2314 15.5626 33.0429 15.4252 32.9027C15.2894 32.7123 15.1142 32.5534 14.9114 32.4369C14.7086 32.3204 14.4831 32.2491 14.2502 32.2277C13.2253 32.1666 12.1998 32.3375 11.2502 32.7277C10.5752 31.5027 10.4252 31.1527 10.2002 31.0027C10.0343 30.8273 9.81409 30.7128 9.57517 30.6777C9.30017 30.6777 8.95017 30.6777 8.72517 31.0027C8.50017 31.3277 8.37517 31.3277 8.92517 33.9777C7.95017 34.6777 6.42517 35.9777 7.17517 36.8277C7.25878 36.9116 7.35814 36.9782 7.46753 37.0236C7.57693 37.0691 7.69422 37.0924 7.81267 37.0924C7.93112 37.0924 8.04841 37.0691 8.15781 37.0236C8.2672 36.9782 8.36656 36.9116 8.45017 36.8277Z" fill="#1F2147"/>
<path fill-rule="evenodd" clip-rule="evenodd" d="M27.5003 40.8272C28.7753 41.8772 30.3253 41.7272 31.3753 42.4272C31.4506 42.5149 31.543 42.5863 31.6468 42.637C31.7506 42.6878 31.8637 42.7169 31.9791 42.7224C32.0945 42.728 32.2099 42.71 32.3181 42.6695C32.4264 42.629 32.5252 42.5669 32.6086 42.4869C32.692 42.4069 32.7582 42.3107 32.8032 42.2043C32.8481 42.0978 32.8709 41.9833 32.8702 41.8677C32.8694 41.7522 32.8451 41.638 32.7987 41.5322C32.7523 41.4263 32.6848 41.3311 32.6003 41.2522C32.2239 40.594 31.7171 40.0195 31.111 39.5638C30.5049 39.1082 29.8122 38.781 29.0753 38.6022C28.8003 38.6022 26.5753 38.1522 26.3003 38.2272C26.0253 38.3022 25.5503 38.6272 25.6503 39.0022C25.6503 39.7522 27.3003 40.6772 27.5003 40.8272Z" fill="#1F2147"/>
<path fill-rule="evenodd" clip-rule="evenodd" d="M24.9002 44.6773C25.6544 45.2544 26.4992 45.7022 27.4002 46.0023C28.7752 46.4773 31.5502 47.0023 31.5502 45.5773C29.3542 43.4922 26.4759 42.2752 23.4502 42.1523C23.2002 42.1523 20.5002 42.7523 24.9002 44.6773Z" fill="#1F2147"/>
</svg>
