<?xml version="1.0" encoding="UTF-8"?> <svg xmlns="http://www.w3.org/2000/svg" width="90" height="91" viewBox="0 0 90 91" fill="none"><g clip-path="url(#clip0_159_14)"><path fill-rule="evenodd" clip-rule="evenodd" d="M67.5005 17.0702C67.5005 18.9452 67.2755 20.8202 67.238 22.6577C67.2753 25.4635 67.1375 28.269 66.8255 31.0577C66.7444 31.3609 66.7854 31.6839 66.9396 31.9573C67.0939 32.2307 67.3491 32.4327 67.6505 32.5202C67.9637 32.6009 68.296 32.5559 68.5763 32.3947C68.8567 32.2335 69.0628 31.9689 69.1505 31.6577C70.4034 28.5862 71.2847 25.3759 71.7755 22.0952C71.9823 20.1525 72.0574 18.198 72.0005 16.2452C71.513 4.05768 74.213 4.99518 60.9755 4.99518C59.663 4.99518 58.2755 4.99518 56.9255 5.18268C55.5672 5.28621 54.2153 5.46145 52.8755 5.70768C49.8005 6.23268 46.8005 7.09518 43.688 7.84518C43.5299 7.86369 43.3771 7.91346 43.2385 7.9916C43.0998 8.06974 42.9781 8.17468 42.8803 8.30031C42.7826 8.42595 42.7109 8.56977 42.6693 8.7234C42.6277 8.87703 42.6171 9.03741 42.638 9.19518C42.6933 9.51072 42.8688 9.79253 43.1275 9.98136C43.3863 10.1702 43.7082 10.2513 44.0255 10.2077C47.7755 10.2077 51.188 10.2077 54.713 9.98268C56.813 9.98268 58.913 9.57018 60.9755 9.34518L66.9755 8.67018C62.2542 14.8864 56.7025 20.4255 50.4755 25.1327C47.6255 27.4202 44.5505 29.6702 41.438 31.8452C38.3255 34.0202 35.0255 36.0452 31.838 37.9952C24.5015 42.7282 16.5014 46.3429 8.10053 48.7202C7.94541 48.7497 7.79763 48.8095 7.66562 48.8962C7.53361 48.9829 7.41996 49.0947 7.33117 49.2253C7.24237 49.3558 7.18016 49.5026 7.1481 49.6573C7.11603 49.8119 7.11474 49.9713 7.14428 50.1264C7.17383 50.2816 7.23364 50.4293 7.32031 50.5613C7.40697 50.6934 7.51878 50.807 7.64936 50.8958C7.77995 50.9846 7.92674 51.0468 8.08136 51.0789C8.23599 51.1109 8.39541 51.1122 8.55053 51.0827C17.4897 49.3966 26.0915 46.2548 34.013 41.7827C37.4208 39.9115 40.7256 37.8585 43.913 35.6327C47.138 33.3827 50.213 30.9827 53.1005 28.5077C58.6138 23.8235 63.5487 18.4984 67.8005 12.6452C67.5005 14.1452 67.5005 15.5327 67.5005 17.0702Z" fill="#0077E7"></path><path fill-rule="evenodd" clip-rule="evenodd" d="M58.0879 66.646C57.7129 64.8835 57.1504 63.2335 56.7754 61.5085C56.8392 60.217 56.395 58.9518 55.5379 57.9835C54.835 57.2676 54.0094 56.6833 53.1004 56.2585C51.9061 55.7261 50.6443 55.3602 49.3504 55.171C49.1756 55.1415 48.9967 55.1467 48.8239 55.1863C48.651 55.2259 48.4877 55.2991 48.3432 55.4018C48.1987 55.5046 48.0758 55.6348 47.9816 55.785C47.8874 55.9352 47.8237 56.1025 47.7942 56.2773C47.7646 56.4521 47.7698 56.631 47.8094 56.8039C47.849 56.9767 47.9223 57.14 48.025 57.2845C48.1277 57.429 48.2579 57.5519 48.4081 57.6461C48.5583 57.7403 48.7256 57.804 48.9004 57.8335C49.749 58.0483 50.5772 58.3369 51.3754 58.696C52.0749 59.0305 52.6998 59.5024 53.2129 60.0835C53.3521 60.2759 53.4449 60.4979 53.4839 60.7321C53.523 60.9663 53.5072 61.2064 53.4379 61.4335C53.412 61.6394 53.3457 61.8382 53.2427 62.0184C53.1398 62.1986 53.0022 62.3567 52.8379 62.4835C51.4397 63.3276 49.8561 63.8168 48.2254 63.9085C45.5616 64.254 42.8643 64.254 40.2004 63.9085L37.2754 63.0835L35.4754 62.2585C34.9504 61.8835 34.5004 61.5085 34.5004 61.021C34.5162 60.7105 34.6019 60.4075 34.7513 60.1347C34.9006 59.862 35.1097 59.6266 35.3629 59.446C36.6794 58.4182 38.1819 57.6542 39.7879 57.196C41.39 56.7092 43.0773 56.5686 44.7379 56.7835C44.8957 56.822 45.0597 56.8281 45.2199 56.8014C45.3801 56.7746 45.5332 56.7156 45.67 56.628C45.8067 56.5403 45.9242 56.4258 46.0154 56.2914C46.1066 56.157 46.1695 56.0055 46.2004 55.846C46.233 55.6931 46.2344 55.5352 46.2046 55.3818C46.1747 55.2283 46.1142 55.0825 46.0267 54.953C45.9392 54.8234 45.8264 54.7129 45.6952 54.6279C45.564 54.543 45.4169 54.4854 45.2629 54.4585C43.2379 54.006 41.138 54.006 39.1129 54.4585C37.0452 54.7941 35.06 55.5194 33.2629 56.596C32.4837 57.0266 31.8123 57.6282 31.2992 58.3557C30.786 59.0832 30.4446 59.9175 30.3004 60.796C30.2492 61.6089 30.404 62.4215 30.7504 63.1585C30.412 64.516 30.1614 65.8938 30.0004 67.2835C29.9061 68.3815 29.9061 69.4856 30.0004 70.5835C30.0004 71.671 30.0004 72.7585 30.2254 73.8085C30.4879 76.1335 30.9754 78.346 31.3879 80.521C31.3072 80.6535 31.2538 80.8007 31.2308 80.9541C31.2079 81.1075 31.2159 81.264 31.2543 81.4142C31.2928 81.5645 31.3609 81.7055 31.4547 81.8291C31.5485 81.9526 31.666 82.0561 31.8004 82.1335C34.1417 83.9943 36.8515 85.3364 39.7504 86.071C40.9804 86.3618 42.237 86.5252 43.5004 86.5585C44.7579 86.5552 46.0126 86.4423 47.2504 86.221C50.159 85.6669 52.9421 84.5868 55.4629 83.0335C55.7822 82.865 56.0256 82.5815 56.1439 82.2404C56.2622 81.8994 56.2467 81.5261 56.1004 81.196C56.0209 81.0344 55.9098 80.8903 55.7738 80.7723C55.6377 80.6542 55.4794 80.5646 55.3082 80.5087C55.1369 80.4528 54.9562 80.4317 54.7767 80.4467C54.5972 80.4617 54.4225 80.5125 54.2629 80.596C51.8464 81.4259 49.3172 81.8812 46.7629 81.946C45.7129 81.946 44.6254 81.946 43.5754 81.946C42.5254 81.946 41.4379 81.946 40.3504 81.946C38.2416 81.7896 36.1618 81.361 34.1629 80.671C34.1629 78.7585 34.1629 76.921 34.3504 74.8585C35.9946 75.8607 37.7757 76.6186 39.6379 77.1085C40.8661 77.4046 42.1246 77.5556 43.3879 77.5585C44.6448 77.5845 45.9012 77.484 47.1379 77.2585C49.6971 76.7526 52.1551 75.8277 54.4129 74.521C54.6014 75.4605 54.7143 76.4135 54.7504 77.371C54.7283 77.5483 54.7412 77.7282 54.7886 77.9005C54.836 78.0728 54.9168 78.234 55.0265 78.375C55.248 78.6599 55.5736 78.845 55.9317 78.8898C56.2897 78.9345 56.6509 78.8352 56.9357 78.6137C57.2205 78.3922 57.4057 78.0666 57.4504 77.7085C58.0038 75.7652 58.331 73.7644 58.4254 71.746C58.4816 70.9095 58.4816 70.0701 58.4254 69.2335C58.3504 68.296 58.2379 67.4335 58.0879 66.646ZM46.6504 72.8335H43.4629C42.3754 72.8335 41.3254 72.8335 40.2379 72.646C38.236 72.4727 36.2605 72.0701 34.3504 71.446V70.5085C34.3504 69.4585 34.3504 68.4085 34.3504 67.396C34.3504 67.0585 34.3504 66.7585 34.3504 66.421L35.5879 67.096L37.5379 67.8085C38.2035 67.9981 38.8797 68.1483 39.5629 68.2585C42.6063 68.7311 45.7033 68.7437 48.7504 68.296C50.5449 67.9475 52.2606 67.274 53.8129 66.3085C53.8129 66.9085 53.8129 67.471 53.8129 68.071C53.8129 69.271 54.0379 70.471 54.1879 71.821C51.7432 72.5478 49.2003 72.8894 46.6504 72.8335Z" fill="#1F2147"></path><path fill-rule="evenodd" clip-rule="evenodd" d="M26.5126 70.2746C26.5261 69.0588 26.0847 67.8818 25.2751 66.9746C24.5906 66.2731 23.7753 65.7125 22.8751 65.3246C21.6923 64.7542 20.4266 64.3745 19.1251 64.1996C18.8086 64.1538 18.4864 64.2286 18.2225 64.4092C17.9585 64.5898 17.7721 64.863 17.7001 65.1746C17.6565 65.492 17.7376 65.8139 17.9265 66.0726C18.1153 66.3314 18.3971 66.5069 18.7126 66.5621C19.5915 66.773 20.4461 67.0746 21.2626 67.4621C21.9973 67.7733 22.6513 68.2478 23.1751 68.8496C23.3257 69.0655 23.43 69.3102 23.4816 69.5683C23.5333 69.8264 23.531 70.0924 23.4751 70.3496C23.4493 70.5942 23.3725 70.8306 23.2498 71.0437C23.1271 71.2569 22.9612 71.442 22.7626 71.5871C21.3513 72.4737 19.739 72.9897 18.0751 73.0871C15.3549 73.4097 12.6027 73.3466 9.90014 72.8996L6.90014 72.0746L5.02514 71.2121C4.38764 70.7621 3.93764 70.3121 3.93764 69.7496C3.95325 69.3963 4.05334 69.0519 4.22951 68.7452C4.40568 68.4385 4.65279 68.1786 4.95014 67.9871C6.29398 66.9587 7.82109 66.1951 9.45014 65.7371C11.1007 65.2346 12.8403 65.0939 14.5501 65.3246C14.6833 65.3577 14.8217 65.3633 14.9571 65.3412C15.0925 65.3192 15.222 65.2698 15.3377 65.1962C15.4534 65.1225 15.553 65.0261 15.6303 64.9128C15.7077 64.7995 15.7612 64.6717 15.7876 64.5371C15.8266 64.4015 15.8368 64.2592 15.8176 64.1194C15.7983 63.9797 15.7501 63.8454 15.676 63.7254C15.6018 63.6053 15.5034 63.5021 15.387 63.4223C15.2706 63.3425 15.1388 63.288 15.0001 63.2621C12.9856 62.8293 10.9022 62.8293 8.88764 63.2621C6.83391 63.6273 4.86412 64.3644 3.07514 65.4371C2.31957 65.8897 1.67918 66.5113 1.20421 67.253C0.729242 67.9948 0.432626 68.8365 0.337637 69.7121C0.317448 70.2709 0.393559 70.8291 0.562637 71.3621C0.3677 72.0241 0.229698 72.7016 0.150137 73.3871C0.0471898 74.0194 -0.0029832 74.6591 0.000137026 75.2996C0.0236217 75.9652 0.0862298 76.6289 0.187637 77.2871C0.388335 78.4627 0.651203 79.6268 0.975137 80.7746C0.935029 80.9375 0.934528 81.1076 0.973674 81.2707C1.01282 81.4338 1.09048 81.5852 1.20014 81.7121C1.21398 81.8735 1.26034 82.0304 1.33645 82.1734C1.41255 82.3164 1.51681 82.4425 1.64295 82.5441C1.76909 82.6457 1.9145 82.7207 2.07041 82.7647C2.22632 82.8086 2.38951 82.8205 2.55014 82.7996C4.58239 84.1325 6.82707 85.109 9.18764 85.6871C10.4184 85.9734 11.6746 86.1367 12.9376 86.1746C14.1932 86.1644 15.4464 86.0642 16.6876 85.8746C19.6916 85.3875 22.5784 84.3447 25.2001 82.7996C25.3429 82.7307 25.4708 82.6343 25.5763 82.5159C25.6819 82.3976 25.7631 82.2596 25.8153 82.1099C25.8676 81.9601 25.8898 81.8016 25.8808 81.6433C25.8717 81.4849 25.8316 81.3299 25.7626 81.1871C25.6937 81.0443 25.5973 80.9165 25.4789 80.8109C25.3606 80.7054 25.2226 80.6241 25.0729 80.5719C24.9232 80.5197 24.7646 80.4974 24.6063 80.5065C24.4479 80.5155 24.2929 80.5557 24.1501 80.6246C21.743 81.5102 19.2128 82.0163 16.6501 82.1246C15.5626 82.1246 14.4376 82.1246 13.3876 82.1246C12.3009 82.1828 11.2119 82.1828 10.1251 82.1246C7.94114 81.8766 5.79838 81.3472 3.75014 80.5496C3.75014 79.4246 3.97514 78.2621 4.05014 77.0621C4.05014 76.4621 4.05014 75.8246 4.05014 75.1871L5.32514 75.8621C5.94819 76.1261 6.5869 76.3515 7.23764 76.5371C7.88318 76.7541 8.5491 76.9048 9.22514 76.9871C12.3328 77.4531 15.4925 77.4531 18.6001 76.9871C20.4368 76.7065 22.1974 76.0558 23.7751 75.0746V75.7871C24.0409 76.6991 24.2537 77.6256 24.4126 78.5621C24.3793 78.8735 24.4652 79.1859 24.6531 79.4365C24.841 79.687 25.1169 79.857 25.4251 79.9121C25.583 79.9388 25.7445 79.9336 25.9003 79.8968C26.0561 79.8601 26.2029 79.7926 26.3322 79.6982C26.4615 79.6039 26.5706 79.4846 26.6531 79.3475C26.7356 79.2103 26.7899 79.058 26.8126 78.8996C27.2242 77.8666 27.4893 76.7811 27.6001 75.6746C27.6562 75.2264 27.6562 74.7729 27.6001 74.3246C27.5648 73.8936 27.4895 73.4667 27.3751 73.0496C27.2626 71.9246 26.8126 71.1746 26.5126 70.2746Z" fill="#1F2147"></path><path fill-rule="evenodd" clip-rule="evenodd" d="M90.0008 63.1943C90.0008 61.8068 90.0008 60.4568 89.7008 59.1443C89.2883 55.9943 88.6883 52.9193 88.3133 49.8068C88.2921 49.6244 88.2307 49.4491 88.1334 49.2934C88.0361 49.1378 87.9054 49.0057 87.7508 48.9068C87.5729 48.23 87.2243 47.6102 86.7383 47.1068C86.0457 46.3787 85.2177 45.7928 84.3008 45.3818C83.1047 44.8542 81.8436 44.4884 80.5508 44.2943C80.3759 44.2618 80.1964 44.2642 80.0224 44.3014C79.8485 44.3385 79.6836 44.4096 79.5373 44.5107C79.3909 44.6117 79.266 44.7407 79.1696 44.8902C79.0732 45.0397 79.0074 45.2068 78.9758 45.3818C78.9436 45.5594 78.9474 45.7415 78.9869 45.9176C79.0264 46.0937 79.1008 46.26 79.2057 46.4069C79.3105 46.5537 79.4438 46.678 79.5975 46.7725C79.7513 46.8669 79.9224 46.9296 80.1008 46.9568C80.9592 47.1375 81.791 47.4273 82.5758 47.8193C83.2752 48.1538 83.9001 48.6256 84.4133 49.2068C84.5525 49.3992 84.6452 49.6212 84.6843 49.8554C84.7233 50.0896 84.7076 50.3297 84.6383 50.5568C84.6121 50.7669 84.5418 50.9691 84.4319 51.15C84.3221 51.331 84.1751 51.4867 84.0008 51.6068C82.6187 52.4564 81.0459 52.9463 79.4258 53.0318C76.7619 53.3772 74.0646 53.3772 71.4008 53.0318L68.4758 52.2068L66.6758 51.3818C66.1508 51.0068 65.7008 50.6318 65.7008 50.1443C65.7165 49.8337 65.8023 49.5307 65.9516 49.258C66.101 48.9853 66.3101 48.7498 66.5633 48.5693C67.875 47.5341 69.379 46.7694 70.9883 46.3193C72.5197 45.8043 74.144 45.6253 75.7508 45.7943C75.906 45.8271 76.0661 45.8289 76.222 45.7995C76.3779 45.77 76.5263 45.71 76.6589 45.6228C76.7914 45.5356 76.9053 45.423 76.994 45.2916C77.0827 45.1601 77.1445 45.0123 77.1758 44.8568C77.2432 44.5487 77.1865 44.2264 77.0181 43.9597C76.8496 43.693 76.583 43.5034 76.2758 43.4318C74.2486 42.9993 72.153 42.9993 70.1258 43.4318C68.058 43.7673 66.0728 44.4927 64.2758 45.5693C63.4861 46.0306 62.8164 46.6718 62.3212 47.4407C61.826 48.2096 61.5192 49.0845 61.4258 49.9943C61.3847 50.9359 61.6054 51.8705 62.0633 52.6943C61.4527 55.3668 60.9895 58.0709 60.6758 60.7943C60.6758 62.3318 60.4883 63.9068 60.4883 65.4443C60.4883 66.9818 60.4883 68.5568 60.7133 70.1318C60.9758 73.8818 61.5008 77.3693 61.9883 80.9318C61.9973 81.1111 62.0431 81.2867 62.1228 81.4477C62.2024 81.6086 62.3142 81.7515 62.4513 81.8675C62.5884 81.9835 62.7478 82.0702 62.9198 82.1221C63.0917 82.174 63.2724 82.19 63.4508 82.1693C65.792 84.03 68.5018 85.3722 71.4008 86.1068C72.6312 86.3952 73.8876 86.5586 75.1508 86.5943C76.4082 86.591 77.663 86.478 78.9008 86.2568C81.8094 85.7027 84.5925 84.6225 87.1133 83.0693C87.4392 82.9077 87.6886 82.6246 87.8079 82.2809C87.9271 81.9373 87.9066 81.5605 87.7508 81.2318C87.6713 81.0702 87.5602 80.9261 87.4241 80.808C87.2881 80.69 87.1297 80.6004 86.9585 80.5445C86.7873 80.4886 86.6066 80.4675 86.4271 80.4825C86.2476 80.4975 86.0729 80.5482 85.9133 80.6318C83.4969 81.4622 80.9676 81.9175 78.4133 81.9818C77.3258 81.9818 76.2383 81.9818 75.1883 81.9818C74.1383 81.9818 73.0508 81.9818 71.9633 81.9818C69.3878 81.8612 66.8516 81.3033 64.4633 80.3318C64.4633 78.2693 64.4633 76.1693 64.4633 74.0693C66.473 75.4934 68.7207 76.5475 71.1008 77.1818C72.3293 77.4755 73.5876 77.6265 74.8508 77.6318C76.1077 77.6578 77.364 77.5573 78.6008 77.3318C81.298 76.8575 83.8887 75.905 86.2508 74.5193C86.2508 75.2318 86.2508 75.9443 86.2508 76.6568C86.23 76.8352 86.2461 77.0159 86.298 77.1878C86.3499 77.3597 86.4365 77.5192 86.5525 77.6563C86.6685 77.7933 86.8114 77.9052 86.9724 77.9848C87.1333 78.0645 87.3089 78.1102 87.4883 78.1193C87.6648 78.1402 87.8437 78.1241 88.0135 78.0718C88.1834 78.0196 88.3404 77.9324 88.4746 77.8158C88.6088 77.6993 88.7171 77.556 88.7927 77.3952C88.8682 77.2343 88.9093 77.0595 88.9133 76.8818C89.5003 73.7112 89.8637 70.5033 90.0008 67.2818C90.0008 65.8943 90.0008 64.5443 90.0008 63.1943ZM66.6383 56.2193C67.2741 56.4833 67.9253 56.7088 68.5883 56.8943C69.2468 57.1191 69.9247 57.2823 70.6133 57.3818C73.7224 57.8274 76.8792 57.8274 79.9883 57.3818C82.0213 57.0238 83.9529 56.2307 85.6508 55.0568C85.6508 57.0068 85.3133 58.8068 85.3508 60.8693V61.2443C83.2173 61.8853 81.0135 62.2631 78.7883 62.3693C77.7008 62.3693 76.6133 62.3693 75.5633 62.3693L72.3383 62.1818C69.8592 62.0063 67.4199 61.4628 65.1008 60.5693C65.1008 58.8443 65.1008 57.1568 65.1008 55.4693L66.6383 56.2193ZM78.7508 72.8318H75.5258C74.4383 72.8318 73.3883 72.8318 72.3008 72.6443C69.8038 72.5094 67.3459 71.9646 65.0258 71.0318V70.0943V65.5568C65.0258 64.8068 65.0258 64.0568 65.0258 63.3068C66.9871 64.6943 69.1859 65.711 71.5133 66.3068C73.9854 66.8345 76.5411 66.8345 79.0133 66.3068C81.1966 65.8753 83.306 65.1301 85.2758 64.0943C85.2758 65.0693 85.2758 66.0068 85.4633 66.9818C85.6508 67.9568 85.6508 69.9068 85.7633 71.3693C83.5103 72.1984 81.1474 72.6912 78.7508 72.8318Z" fill="#1F2147"></path></g><defs><clipPath id="clip0_159_14"><rect width="90" height="90" fill="white" transform="translate(0 0.794922)"></rect></clipPath></defs></svg> 