<svg width="60" height="60" viewBox="0 0 60 60" fill="none" xmlns="http://www.w3.org/2000/svg">
<path d="M59.7249 3.12779C59.6974 2.59731 59.4852 2.09318 59.1249 1.70279C57.6479 0.999121 56.0359 0.623845 54.3999 0.602789C48.7249 0.0277892 39.0999 0.202789 37.7999 0.202789C34.5499 0.202789 29.6999 0.477789 26.0749 0.852789C24.1253 0.919308 22.2034 1.33418 20.3999 2.07779C20.1757 2.31865 20.0354 2.6256 19.9999 2.95279C19.8868 3.46239 19.8198 3.98116 19.7999 4.50279C19.5999 7.00279 19.4499 12.7028 19.4999 17.7528C19.4522 20.7442 19.6193 23.7353 19.9999 26.7028C20.0633 27.2863 20.2884 27.8404 20.6499 28.3028C20.8898 28.5287 21.1818 28.6919 21.4999 28.7778C22.5136 28.9652 23.5448 29.0406 24.5749 29.0028C27.9249 29.0028 33.1749 28.6278 35.5249 28.6028H36.1249C36.6999 29.4278 37.3499 30.9528 38.3999 32.6028C39.0556 33.6236 39.8091 34.5781 40.6499 35.4528C42.5251 37.0737 44.8398 38.1005 47.2999 38.4028C47.8755 38.52 48.4628 38.5704 49.0499 38.5528C49.2707 38.5432 49.4824 38.4626 49.6536 38.323C49.8248 38.1833 49.9462 37.9921 49.9999 37.7778C50.0197 37.6457 50.0122 37.511 49.9778 37.382C49.9434 37.253 49.8828 37.1324 49.7999 37.0278C48.7147 35.7334 47.975 34.1853 47.6499 32.5278C47.4279 31.3801 47.4279 30.2005 47.6499 29.0528C47.6499 28.6528 47.8249 28.3278 48.0499 28.2278C50.8515 27.9892 53.6651 27.9224 56.4749 28.0278C57.4381 28.0585 58.3881 27.797 59.1999 27.2778C59.3656 27.0881 59.4702 26.8529 59.4999 26.6028C59.4999 26.3278 59.4999 25.7778 59.6499 25.0028C59.8249 21.8778 60.0249 15.0028 60.0249 9.72779C60.0515 7.52386 59.9513 5.32022 59.7249 3.12779ZM57.6499 25.2028C57.6499 25.4528 57.6499 25.7028 57.6499 25.9028C57.2923 26.0335 56.9244 26.1339 56.5499 26.2028C54.2999 26.4028 50.6749 26.2028 48.7249 26.4528C48.2821 26.4754 47.8446 26.5595 47.4249 26.7028C46.3999 27.0778 45.6749 29.0528 45.8749 31.5528C46.012 33.3009 46.5055 35.0025 47.3249 36.5528C45.3467 36.2479 43.4981 35.38 41.9999 34.0528C41.2776 33.2848 40.6328 32.4474 40.0749 31.5528C38.8499 29.5528 38.1749 27.7028 37.5749 26.9278C37.3862 26.6981 37.1189 26.5467 36.8249 26.5028C36.292 26.4732 35.7579 26.4732 35.2249 26.5028C32.7249 26.5028 27.5249 26.7028 24.3249 26.5028C23.8503 26.5311 23.3745 26.5311 22.8999 26.5028C22.8999 25.9028 22.3999 24.5278 22.3499 23.1778C22.1499 18.1778 22.3499 9.87779 22.5499 5.82779C22.5499 5.30279 22.5499 4.77779 22.5499 4.37779H22.8249C23.9999 4.12779 25.8499 3.92779 27.8249 3.72779C31.0999 3.45279 34.9249 3.22779 37.6749 3.20279C38.6499 3.20279 44.6999 3.02779 49.9749 3.20279C52.122 3.22719 54.2664 3.3607 56.3999 3.60279C56.6636 3.6785 56.9225 3.77034 57.1749 3.87779C57.1919 4.20257 57.1919 4.52801 57.1749 4.85279C57.3499 6.62779 57.4249 9.45279 57.4749 12.4778C57.8249 17.1528 57.7749 22.6528 57.6499 25.2028Z" fill="#1F2147"/>
<path d="M38.4503 40.0282C38.3385 40.0067 38.2235 40.0078 38.1121 40.0316C38.0008 40.0553 37.8954 40.1012 37.8021 40.1665C37.7088 40.2318 37.6296 40.3152 37.5692 40.4116C37.5087 40.5081 37.4683 40.6158 37.4503 40.7282C37.0561 42.9557 36.0124 45.0171 34.4503 46.6532C32.8932 48.2504 30.9178 49.3767 28.7503 49.9032C27.8848 50.0927 27.0079 50.2263 26.1253 50.3032C24.0253 50.4782 22.0503 50.4532 22.0503 50.4532C21.8805 50.4524 21.7125 50.4876 21.5573 50.5566C21.4022 50.6256 21.2634 50.7266 21.1503 50.8532C20.6503 51.3782 19.7503 52.8032 18.6503 54.0782C18.1946 54.6767 17.6559 55.207 17.0503 55.6532C15.9402 56.2595 14.7286 56.6577 13.4753 56.8282C13.7949 56.0282 13.997 55.1861 14.0753 54.3282C14.2086 53.1741 13.9908 52.0066 13.4503 50.9782C13.1685 50.5199 12.7351 50.1749 12.2253 50.0032C9.35701 49.3678 6.67196 48.0851 4.37527 46.2532C2.85027 44.6782 2.30027 42.3532 2.52527 38.3282C2.81089 34.8805 4.29724 31.6424 6.72527 29.1782C9.1694 26.6248 12.336 24.8801 15.8003 24.1782C15.9979 24.136 16.1712 24.0183 16.2832 23.8502C16.3953 23.6821 16.4373 23.4768 16.4003 23.2782C16.4012 23.1707 16.3791 23.0642 16.3353 22.966C16.2915 22.8679 16.2271 22.7802 16.1465 22.7091C16.0659 22.638 15.9709 22.585 15.8681 22.5538C15.7652 22.5226 15.6568 22.5138 15.5503 22.5282C11.7143 23.1717 8.16522 24.968 5.37527 27.6782C2.48242 30.4183 0.627375 34.0754 0.125267 38.0282C-0.324733 43.0282 0.525267 46.0032 2.37527 48.0282C4.88882 50.1941 7.87825 51.7359 11.1003 52.5282C11.117 52.6944 11.117 52.8619 11.1003 53.0282C11.1759 53.7758 11.108 54.531 10.9003 55.2532C10.7716 56.0686 10.4643 56.8455 10.0003 57.5282C9.78144 57.7438 9.64434 58.0288 9.61242 58.3343C9.58049 58.6399 9.65574 58.947 9.82527 59.2032C9.93622 59.3915 10.0883 59.5522 10.2701 59.6734C10.4519 59.7946 10.6588 59.8732 10.8753 59.9032C11.199 59.9437 11.5265 59.9437 11.8503 59.9032C14.2471 59.7418 16.5782 59.0501 18.6753 57.8782C19.3081 57.4198 19.8794 56.8821 20.3753 56.2782C21.3503 55.1032 22.2003 53.7782 22.8753 52.9032C23.6503 52.9032 25.0753 52.7782 26.5753 52.6032C27.5542 52.4915 28.5235 52.3077 29.4753 52.0532C32.0085 51.3419 34.2938 49.9396 36.0753 48.0032C37.819 46.0569 38.9496 43.6392 39.3253 41.0532C39.3522 40.9258 39.3496 40.7939 39.3175 40.6676C39.2854 40.5414 39.2247 40.4243 39.1402 40.3252C39.0556 40.2262 38.9494 40.1479 38.8298 40.0964C38.7102 40.0449 38.5803 40.0215 38.4503 40.0282Z" fill="#0077E7"/>
</svg>
